<?xml version="1.0" encoding="iso-8859-1"?>
<!-- Generator: Adobe Illustrator 19.0.0, SVG Export Plug-In . SVG Version: 6.00 Build 0)  -->
<svg version="1.1" id="Layer_1" xmlns="http://www.w3.org/2000/svg" xmlns:xlink="http://www.w3.org/1999/xlink" x="0px" y="0px"
	 viewBox="0 0 512 512" style="enable-background:new 0 0 512 512;" xml:space="preserve">
<circle style="fill:#72CCC5;" cx="256" cy="220.689" r="185.379"/>
<path style="fill:#11BBA3;" d="M256,326.62c-88.745,0-162.912-62.365-181.098-145.655c-2.795,12.799-4.281,26.087-4.281,39.724
	c0,102.382,82.997,185.379,185.379,185.379s185.379-82.997,185.379-185.379c0-13.638-1.486-26.925-4.281-39.724
	C418.912,264.256,344.745,326.62,256,326.62z"/>
<path id="SVGCleanerId_0" style="fill:#66BF00;" d="M222.31,110.79l5.812,17.436c0.878,2.636,2.947,4.704,5.583,5.583l16.259,5.42
	c3.605,1.202,6.036,4.575,6.036,8.374v17.448c0,1.742-0.515,3.446-1.483,4.897l-14.69,22.035c-0.967,1.45-1.483,3.154-1.483,4.897
	v25.746c0,4.051,2.756,7.582,6.687,8.564l21.938,5.484c3.929,0.982,6.687,4.513,6.687,8.564v15.585c0,2.546,1.099,4.968,3.015,6.644
	l63.8,55.825c2.358,2.063,5.632,2.722,8.605,1.731l16.509-5.503c3.172-1.057,5.474-3.816,5.948-7.126l7.967-55.772
	c0.06-0.414,0.088-0.831,0.088-1.248v-17.03c0-4.875,3.953-8.828,8.828-8.828h22.24c2.681,0,5.218-1.219,6.893-3.313l20.113-25.14
	c1.502-1.877,2.197-4.289,1.859-6.669C426.749,104.467,349.454,35.31,256,35.31c-26.383,0-51.475,5.518-74.194,15.454
	c-3.202,1.4-5.255,4.585-5.255,8.078v31.023c0,4.207,2.97,7.831,7.096,8.657l32.018,6.403
	C218.773,105.548,221.308,107.785,222.31,110.79z"/>
<g>
	<path id="SVGCleanerId_0_1_" style="fill:#66BF00;" d="M222.31,110.79l5.812,17.436c0.878,2.636,2.947,4.704,5.583,5.583
		l16.259,5.42c3.605,1.202,6.036,4.575,6.036,8.374v17.448c0,1.742-0.515,3.446-1.483,4.897l-14.69,22.035
		c-0.967,1.45-1.483,3.154-1.483,4.897v25.746c0,4.051,2.756,7.582,6.687,8.564l21.938,5.484c3.929,0.982,6.687,4.513,6.687,8.564
		v15.585c0,2.546,1.099,4.968,3.015,6.644l63.8,55.825c2.358,2.063,5.632,2.722,8.605,1.731l16.509-5.503
		c3.172-1.057,5.474-3.816,5.948-7.126l7.967-55.772c0.06-0.414,0.088-0.831,0.088-1.248v-17.03c0-4.875,3.953-8.828,8.828-8.828
		h22.24c2.681,0,5.218-1.219,6.893-3.313l20.113-25.14c1.502-1.877,2.197-4.289,1.859-6.669
		C426.749,104.467,349.454,35.31,256,35.31c-26.383,0-51.475,5.518-74.194,15.454c-3.202,1.4-5.255,4.585-5.255,8.078v31.023
		c0,4.207,2.97,7.831,7.096,8.657l32.018,6.403C218.773,105.548,221.308,107.785,222.31,110.79z"/>
</g>
<path style="fill:#66BF00;" d="M235.393,254.229l-39.098-23.459c-1.347-0.809-2.361-2.072-2.858-3.563l-15.385-46.155
	c-0.896-2.688-3.411-4.501-6.244-4.501h-35.871c-2.2,0-4.256,1.1-5.476,2.931l-3.642,5.464c-3.613,5.419-12.058,2.861-12.058-3.651
	l0,0c0-2.833-1.813-5.348-4.501-6.244l-24.565-8.189c-3.555-1.185-7.414,0.824-8.412,4.437c-4.338,15.726-6.66,32.287-6.66,49.391
	c0,93.92,69.848,171.513,160.43,183.7c2.339,0.314,4.661-0.695,6.077-2.583l8.58-11.441c0.945-1.259,1.407-2.816,1.302-4.387
	l-8.436-126.545C238.431,257.283,237.242,255.337,235.393,254.229z"/>
<path style="fill:#58AB23;" d="M74.9,180.96c-2.797,12.799-4.279,26.091-4.279,39.73c0,95.224,71.802,173.666,164.217,184.17
	l12.334-16.446l-4.15-62.252C160.096,320.425,92.191,260.157,74.9,180.96z"/>
<path style="fill:#FFE5BA;" d="M159.138,372.056c4.278-8.49,14.726-11.828,23.406-7.954l79.292,16.051l60.457-29.676
	c0.927-0.455,1.665-1.22,2.086-2.164l7.209-16.153c1.345-3.015-0.966-6.386-4.262-6.207c-8.797,0.479-24.85,1.455-43.586,3.069
	c-7.821,0.673-15.383-3.857-17.907-11.29c-3.053-8.994,1.575-18.848,10.532-22.2c0,0,80.764-13.747,115.418-20.686
	c10.784-2.159,21.974,3.317,32.019,7.799h79.37c4.875,0,8.828,3.953,8.828,8.828v70.621c0,4.875-3.953,8.828-8.828,8.828h-71.917
	l-76.267,51.688c-1.237,0.838-2.666,1.348-4.153,1.484l-92.669,8.425c-1.423,0.129-2.857-0.088-4.177-0.636l-86.29-35.735
	C158.537,392.056,154.571,381.12,159.138,372.056z"/>
<path style="fill:#FFD686;" d="M264.828,410.643l79.448-8.828l79.448-52.966H512v13.241c0,4.875-3.953,8.828-8.828,8.828h-71.917
	l-76.267,51.688c-1.237,0.838-2.666,1.348-4.153,1.484l-92.669,8.425c-1.423,0.129-2.857-0.088-4.177-0.636l-86.29-35.735
	c-8.92-3.981-12.892-14.446-8.882-23.362L264.828,410.643z"/>
<path style="fill:#EBC698;" d="M352.862,416.194c-4.278-8.49-14.725-11.828-23.406-7.954l-79.292,16.051l-60.457-29.676
	c-0.927-0.455-1.665-1.22-2.086-2.164l-7.209-16.153c-1.345-3.015,0.966-6.386,4.262-6.207c8.797,0.479,24.85,1.455,43.586,3.069
	c7.821,0.673,15.383-3.857,17.907-11.29c3.053-8.994-1.575-18.848-10.532-22.2c0,0-80.764-13.747-115.418-20.686
	c-10.784-2.159-21.974,3.317-32.019,7.799H8.828c-4.875,0-8.828,3.953-8.828,8.828v70.621c0,4.875,3.953,8.828,8.828,8.828h71.917
	l76.267,51.688c1.237,0.838,2.666,1.348,4.153,1.484l92.669,8.425c1.423,0.129,2.857-0.088,4.177-0.636l86.29-35.735
	C353.463,436.194,357.429,425.258,352.862,416.194z"/>
<path style="fill:#CEAB77;" d="M247.172,454.781l-79.448-8.828l-79.448-52.966H0v13.241c0,4.875,3.953,8.828,8.828,8.828h71.917
	l76.267,51.688c1.237,0.838,2.666,1.348,4.153,1.484l92.669,8.425c1.423,0.129,2.857-0.088,4.177-0.636l86.29-35.735
	c8.92-3.981,12.892-14.446,8.882-23.362L247.172,454.781z"/>
<g>
</g>
<g>
</g>
<g>
</g>
<g>
</g>
<g>
</g>
<g>
</g>
<g>
</g>
<g>
</g>
<g>
</g>
<g>
</g>
<g>
</g>
<g>
</g>
<g>
</g>
<g>
</g>
<g>
</g>
</svg>
