<?xml version="1.0" encoding="iso-8859-1"?>
<!-- Generator: Adobe Illustrator 19.0.0, SVG Export Plug-In . SVG Version: 6.00 Build 0)  -->
<svg version="1.1" id="Layer_1" xmlns="http://www.w3.org/2000/svg" xmlns:xlink="http://www.w3.org/1999/xlink" x="0px" y="0px"
	 viewBox="0 0 512 512" style="enable-background:new 0 0 512 512;" xml:space="preserve">
<path style="fill:#C16B3D;" d="M512,405.538c0,6.114-4.957,11.069-11.07,11.069H267.071c-6.113,0-11.07-4.955-11.07-11.069V267.16
	c0-6.112,4.956-11.069,11.07-11.069H500.93c6.113,0,11.07,4.957,11.07,11.069V405.538z"/>
<path style="fill:#FF8828;" d="M256,405.538c0,6.114-4.957,11.069-11.07,11.069H11.071C4.957,416.608,0,411.653,0,405.538V267.16
	c0-6.112,4.957-11.069,11.071-11.069h233.859c6.113,0,11.07,4.957,11.07,11.069L256,405.538L256,405.538z"/>
<path style="fill:#FCB638;" d="M384,244.843c0,6.114-4.957,11.07-11.07,11.07H139.071c-6.114,0-11.072-4.955-11.072-11.07V106.465
	c0-6.114,4.957-11.072,11.072-11.072h233.858c6.113,0,11.07,4.957,11.07,11.072v138.378H384z"/>
<path style="fill:#F7AC16;" d="M179.736,122.493c0-9.238,0.793-18.29,2.295-27.101h-42.959c-6.114,0-11.072,4.957-11.072,11.072
	v138.378c0,6.114,4.957,11.07,11.072,11.07h112.179C208.144,227.205,179.736,178.168,179.736,122.493z"/>
<path style="fill:#F27019;" d="M51.736,283.189c0-9.238,0.793-18.289,2.295-27.1h-42.96C4.957,256.089,0,261.046,0,267.16v138.378
	c0,6.114,4.957,11.069,11.071,11.069h112.18C80.145,387.899,51.736,338.864,51.736,283.189z"/>
<path style="fill:#AF542C;" d="M307.736,283.189c0-9.238,0.793-18.289,2.294-27.1h-42.959c-6.113,0-11.07,4.957-11.07,11.072
	v138.378c0,6.114,4.956,11.069,11.07,11.069H379.25C336.144,387.899,307.736,338.864,307.736,283.189z"/>
<path style="fill:#AF4F25;" d="M256,383.394v22.144c0,6.114,4.956,11.069,11.07,11.069h233.859c6.113,0,11.07-4.955,11.07-11.069
	v-22.144H256z"/>
<path style="fill:#993C1C;" d="M342.963,383.394h-86.962v22.144c0,1.909,0.483,3.708,1.335,5.277
	c1.875,3.45,5.531,5.792,9.734,5.792H379.25C365.51,407.458,353.272,396.233,342.963,383.394z"/>
<path style="fill:#FF6A29;" d="M0,383.394v22.144c0,6.114,4.957,11.069,11.071,11.069h233.859c6.113,0,11.07-4.955,11.07-11.069
	v-22.144H0z"/>
<path style="fill:#ED4F18;" d="M86.963,383.394H0v22.144c0,1.909,0.484,3.708,1.336,5.277c1.875,3.45,5.531,5.792,9.734,5.792
	h112.18C109.51,407.458,97.273,396.233,86.963,383.394z"/>
<path style="fill:#F48119;" d="M128,222.702v22.141c0,6.114,4.957,11.07,11.072,11.07H372.93c6.113,0,11.07-4.955,11.07-11.07
	v-22.141H128z"/>
<path style="fill:#DD6B0E;" d="M214.964,222.702H128v22.141c0,6.114,4.957,11.07,11.072,11.07h112.179
	C237.511,246.762,225.273,235.539,214.964,222.702z"/>
<g>
	<path style="fill:#F5F5F5;" d="M276.995,183.238v12.742h-49.163v-12.742h18.275v-44.915c-0.772,1.03-1.975,2.104-3.604,3.219
		c-1.63,1.115-3.433,2.145-5.405,3.089c-1.974,0.944-4.034,1.737-6.177,2.381c-2.145,0.644-4.035,0.966-5.663,0.966v-13.256
		c1.714,0,3.711-0.515,5.984-1.545c2.273-1.029,4.46-2.23,6.564-3.603c2.101-1.371,3.945-2.745,5.533-4.118
		c1.586-1.371,2.51-2.359,2.768-2.96h14.542v60.744h16.346V183.238z"/>
	<path style="fill:#F5F5F5;" d="M100.304,356.033c0-3.603,0.3-6.949,0.901-10.037c0.599-3.089,1.672-5.985,3.217-8.688
		c1.544-2.704,3.647-5.276,6.306-7.723c2.659-2.445,6.091-4.826,10.295-7.143c3.002-1.629,5.833-3.132,8.494-4.505
		c2.659-1.371,4.997-2.723,7.015-4.054c2.014-1.329,3.624-2.745,4.826-4.247c1.201-1.5,1.801-3.237,1.801-5.212
		c0-2.745-1.18-5.212-3.539-7.4c-2.361-2.189-5.771-3.282-10.231-3.282c-2.317,0-4.44,0.321-6.37,0.966
		c-1.93,0.643-3.69,1.459-5.276,2.444c-1.588,0.988-2.983,2.081-4.183,3.282c-1.203,1.203-2.275,2.361-3.218,3.475l-9.008-10.424
		c0.856-0.942,2.208-2.122,4.054-3.539c1.844-1.415,4.074-2.768,6.692-4.054c2.617-1.287,5.599-2.382,8.945-3.282
		c3.346-0.901,6.992-1.352,10.939-1.352c4.118,0,7.829,0.537,11.132,1.608c3.302,1.074,6.091,2.555,8.366,4.44
		c2.273,1.889,4.009,4.142,5.212,6.757c1.2,2.618,1.801,5.428,1.801,8.43c0,3.176-0.643,6.007-1.93,8.494
		c-1.287,2.49-2.876,4.678-4.762,6.564c-1.888,1.888-3.947,3.497-6.177,4.826c-2.232,1.331-4.291,2.468-6.177,3.411
		c-1.801,0.857-3.841,1.865-6.113,3.024c-2.275,1.158-4.484,2.489-6.628,3.989c-2.145,1.503-4.076,3.112-5.791,4.827
		c-1.717,1.717-2.918,3.603-3.604,5.661h42.6v12.741h-59.587V356.033z"/>
	<path style="fill:#F5F5F5;" d="M388.922,316.747c4.343,0.772,7.863,2.856,10.561,6.252c2.696,3.398,4.045,7.55,4.045,12.452
		c0,3.294-0.647,6.268-1.943,8.932c-1.297,2.662-3.117,4.92-5.464,6.777c-2.348,1.855-5.201,3.292-8.564,4.309
		c-3.362,1.015-7.145,1.523-11.349,1.523c-5.324,0-10.035-0.858-14.133-2.574c-4.099-1.718-7.514-4.222-10.245-7.514l7.986-9.982
		c1.82,2.312,3.993,4.099,6.516,5.359c2.522,1.262,5.674,1.891,9.456,1.891c4.272,0,7.529-0.84,9.773-2.522
		c2.242-1.681,3.362-4.272,3.362-7.775c0-3.642-1.296-6.443-3.887-8.406c-2.595-1.96-6.516-2.942-11.77-2.942h-2.942v-10.508h3.256
		c4.345,0,7.706-0.962,10.089-2.89c2.381-1.925,3.572-4.396,3.572-7.409c0-2.871-0.981-5.007-2.942-6.408
		c-1.962-1.4-4.519-2.102-7.671-2.102c-3.224,0-6.112,0.735-8.669,2.207c-2.559,1.472-4.642,3.538-6.252,6.199l-8.827-9.877
		c1.051-1.61,2.452-3.064,4.203-4.361c1.75-1.294,3.73-2.417,5.938-3.362c2.206-0.945,4.606-1.681,7.197-2.206
		c2.593-0.525,5.255-0.788,7.986-0.788c3.574,0,6.832,0.457,9.773,1.366c2.942,0.911,5.48,2.171,7.618,3.782
		c2.137,1.612,3.783,3.557,4.94,5.832c1.154,2.277,1.733,4.816,1.733,7.618c0,2.102-0.315,4.099-0.945,5.989
		c-0.631,1.891-1.542,3.609-2.733,5.149c-1.191,1.54-2.611,2.837-4.256,3.887C392.687,315.697,390.883,316.398,388.922,316.747z"/>
</g>
<g>
</g>
<g>
</g>
<g>
</g>
<g>
</g>
<g>
</g>
<g>
</g>
<g>
</g>
<g>
</g>
<g>
</g>
<g>
</g>
<g>
</g>
<g>
</g>
<g>
</g>
<g>
</g>
<g>
</g>
</svg>
