<?xml version="1.0" encoding="iso-8859-1"?>
<!-- Generator: Adobe Illustrator 19.0.0, SVG Export Plug-In . SVG Version: 6.00 Build 0)  -->
<svg version="1.1" id="Layer_1" xmlns="http://www.w3.org/2000/svg" xmlns:xlink="http://www.w3.org/1999/xlink" x="0px" y="0px"
	 viewBox="0 0 512 512" style="enable-background:new 0 0 512 512;" xml:space="preserve">
<path style="fill:#FBCB99;" d="M245.748,298.299c-4.192-7.26-13.508-9.756-20.768-5.564l-0.377,0.216
	c0.572-3.369,0.02-6.948-1.818-10.131l-0.253-0.435c-4.194-7.261-13.508-9.76-20.769-5.568l-48.246,27.857
	c3.661-7.661,7.509-18.762,4.661-27.584c-1.579-4.895-4.914-8.385-9.907-10.553l-1.72-0.746l-1.866-0.139
	c-4.233-0.31-15.029,1.119-23.859,21.064c-4.836,10.918-10.498,15.723-15.977,20.374c-10.236,8.69-17.246,16.339-20.616,41.581
	l-21.93,12.663l43.296,74.99l29.158-16.832c20.047,8.938,61.86-16.131,63.627-17.203l31.017-17.906
	c7.258-4.193,9.757-13.509,5.566-20.77l-0.253-0.437c-1.839-3.184-4.663-5.451-7.866-6.641l15.707-9.067
	c7.26-4.192,9.757-13.509,5.566-20.77l-0.253-0.436c-1.805-3.122-4.549-5.394-7.703-6.607l0.269-0.156
	c7.262-4.192,9.756-13.508,5.564-20.768L245.748,298.299z"/>
<g>
	<path style="fill:#E9B585;" d="M201.765,276.818l-48.246,27.857c0,0-4.452,2.298-2.336,5.611c2.117,3.313,5.048,1.38,5.048,1.38
		l55.347-32.958c1.702-0.984,3.515-1.593,5.349-1.892C212.38,274.216,206.617,274.017,201.765,276.818z"/>
	<path style="fill:#E9B585;" d="M146.553,265.792l-1.866-0.139c-4.233-0.31-15.029,1.119-23.859,21.064
		c-4.836,10.918-10.498,15.723-15.977,20.374c-10.236,8.69-17.246,16.339-20.616,41.581l-21.93,12.663l43.296,74.99l1.098-0.633
		l-39.959-69.209l22.776-13.151c3.499-26.216,10.781-34.16,21.411-43.183c5.689-4.831,11.571-9.823,16.592-21.16
		c7.653-17.288,16.725-21.179,22.074-21.806c-0.432-0.222-0.86-0.444-1.32-0.644L146.553,265.792z"/>
	<path style="fill:#E9B585;" d="M224.954,292.692l-48.246,27.857c0,0-4.452,2.298-2.336,5.611c2.117,3.313,5.048,1.38,5.048,1.38
		l55.347-32.958c1.702-0.984,3.515-1.593,5.349-1.892C235.57,290.091,229.807,289.891,224.954,292.692z"/>
	<path style="fill:#E9B585;" d="M240.387,319.755c-0.933,0.315-1.849,0.723-2.734,1.235l-48.246,27.857c0,0-4.452,2.298-2.336,5.611
		c2.117,3.313,5.048,1.38,5.048,1.38l53.908-32.102C244.453,321.963,242.52,320.614,240.387,319.755z"/>
	<path style="fill:#E9B585;" d="M226.94,356.575l-32.194,18.588c0,0-4.452,2.298-2.336,5.611c2.117,3.313,5.048,1.38,5.048,1.38
		l35.662-21.235C231.427,358.933,229.287,357.465,226.94,356.575z"/>
</g>
<path style="fill:#6598CB;" d="M1.006,390.778l0.526,0.91c0.11,0.168,0.182,0.262,0.182,0.262l-0.02,0.02l40.211,69.648
	l6.848,11.861l0.027-0.007c0,0,0.045,0.108,0.137,0.289l0.525,0.909c1.237,1.908,4.242,5.19,9.288,2.697l15.384-8.882l19.801-11.433
	l15.385-8.882c4.682-3.124,3.343-7.367,2.308-9.392l-0.526-0.909c-0.11-0.17-0.181-0.263-0.181-0.263l0.019-0.02l-6.848-11.861
	l-40.212-69.648l-0.024,0.007c0,0-0.046-0.109-0.137-0.288l-0.526-0.91c-1.237-1.908-4.242-5.19-9.287-2.696l-15.384,8.882
	l-19.802,11.433l-15.384,8.882C-1.368,384.51-0.029,388.753,1.006,390.778z"/>
<g>
	<path style="fill:#4982AA;" d="M13.298,398.678l15.384-8.882l19.802-11.432l15.384-8.882c5.045-2.496,8.05,0.787,9.287,2.696
		l-1.343-2.328l-7.952-13.774l-0.027,0.007c0,0-0.045-0.108-0.137-0.289l-0.525-0.908c-1.237-1.908-4.242-5.191-9.288-2.698
		l-15.384,8.882l-19.801,11.433l-15.385,8.882c-4.682,3.123-3.343,7.366-2.308,9.391l0.526,0.91c0.11,0.17,0.181,0.263,0.181,0.263
		l-0.019,0.019l7.952,13.774l1.344,2.327C9.955,406.044,8.614,401.801,13.298,398.678z"/>
	<path style="fill:#4982AA;" d="M76.05,377.196l-0.162-0.283c0.092,0.181,0.137,0.289,0.137,0.289L76.05,377.196z"/>
	<path style="fill:#4982AA;" d="M13.723,412.805l0.163,0.283l0.019-0.02C13.905,413.068,13.833,412.974,13.723,412.805z"/>
</g>
<path style="fill:#FBCB99;" d="M261.044,310.332c-4.191,7.26-1.695,16.576,5.566,20.768l0.375,0.216
	c-3.204,1.188-6.027,3.458-7.864,6.64l-0.251,0.437c-4.192,7.262-1.698,16.577,5.562,20.77l48.247,27.854
	c-8.465,0.66-20.003,2.878-26.219,9.755c-3.449,3.815-4.804,8.448-4.185,13.855l0.214,1.864l0.812,1.685
	c1.849,3.821,8.484,12.456,30.171,10.131c11.873-1.271,18.867,1.229,25.634,3.649c12.643,4.52,22.773,6.766,46.318-2.936
	l21.93,12.662l43.296-74.991l-29.155-16.835c-2.283-21.832-44.9-45.506-46.711-46.501l-31.016-17.908
	c-7.26-4.19-16.578-1.695-20.77,5.564l-0.253,0.437c-1.838,3.185-2.389,6.765-1.818,10.133l-15.706-9.068
	c-7.26-4.192-16.578-1.696-20.77,5.565l-0.251,0.437c-1.801,3.124-2.397,6.636-1.87,9.974l-0.269-0.157
	c-7.261-4.193-16.576-1.695-20.768,5.565L261.044,310.332z"/>
<g>
	<path style="fill:#E9B585;" d="M264.433,359.163l48.247,27.854c0,0,4.216,2.708,6.027-0.782c1.811-3.49-1.328-5.062-1.328-5.062
		l-56.216-31.453c-1.703-0.983-3.138-2.247-4.312-3.687C256.872,351.271,259.579,356.362,264.433,359.163z"/>
	<path style="fill:#E9B585;" d="M282.49,412.492l0.812,1.685c1.849,3.821,8.484,12.456,30.171,10.131
		c11.873-1.271,18.867,1.229,25.634,3.649c12.643,4.52,22.773,6.766,46.318-2.936l21.93,12.662l43.296-74.991l-1.097-0.634
		l-39.958,69.21l-22.777-13.149c-24.452,10.077-34.974,7.743-48.103,3.05c-7.029-2.512-14.291-5.11-26.621-3.79
		c-18.797,2.016-26.705-3.895-29.923-8.214c0.023,0.484,0.046,0.967,0.103,1.464L282.49,412.492z"/>
	<path style="fill:#E9B585;" d="M266.585,331.143l48.247,27.854c0,0,4.216,2.708,6.027-0.782c1.81-3.49-1.328-5.062-1.328-5.062
		l-56.216-31.452c-1.703-0.983-3.138-2.247-4.312-3.687C259.024,323.251,261.733,328.342,266.585,331.143z"/>
	<path style="fill:#E9B585;" d="M282.304,304.247c0.74,0.65,1.55,1.239,2.436,1.75l48.247,27.854c0,0,4.216,2.707,6.027-0.783
		c1.811-3.49-1.328-5.061-1.328-5.061l-54.755-30.635C282.186,299.62,281.982,301.969,282.304,304.247z"/>
	<path style="fill:#E9B585;" d="M320.917,297.483l32.194,18.587c0,0,4.216,2.707,6.027-0.783c1.811-3.49-1.328-5.062-1.328-5.062
		l-36.222-20.266C320.715,292.417,320.514,295.005,320.917,297.483z"/>
</g>
<path style="fill:#6598CB;" d="M462.559,475.74l0.526-0.91c0.091-0.179,0.136-0.288,0.136-0.288l0.026,0.007l40.211-69.648
	l6.848-11.86l-0.019-0.021c0,0,0.071-0.094,0.181-0.263l0.526-0.909c1.036-2.025,2.374-6.268-2.308-9.392l-15.384-8.882
	L473.5,362.142l-15.384-8.882c-5.047-2.493-8.051,0.788-9.287,2.697l-0.526,0.909c-0.093,0.181-0.137,0.289-0.137,0.289
	l-0.025-0.007l-6.849,11.861l-40.211,69.648l0.019,0.019c0,0-0.072,0.095-0.181,0.263l-0.526,0.91
	c-1.034,2.025-2.374,6.268,2.309,9.391l15.384,8.882l19.802,11.433l15.384,8.882C458.317,480.932,461.322,477.651,462.559,475.74z"
	/>
<g>
	<path style="fill:#4982AA;" d="M463.254,461.146l-15.384-8.882l-19.801-11.434l-15.384-8.881c-4.683-3.123-3.343-7.366-2.309-9.392
		l-1.344,2.327l-7.952,13.774l0.019,0.02c0,0-0.071,0.094-0.182,0.263l-0.525,0.908c-1.036,2.025-2.375,6.269,2.307,9.393
		l15.385,8.882l19.802,11.432l15.384,8.883c5.045,2.493,8.05-0.787,9.287-2.697l0.526-0.91c0.093-0.18,0.137-0.288,0.137-0.288
		l0.025,0.007l7.952-13.774l1.344-2.328C471.305,460.359,468.301,463.64,463.254,461.146z"/>
	<path style="fill:#4982AA;" d="M413.275,417.541l-0.165,0.283c0.112-0.17,0.182-0.263,0.182-0.263L413.275,417.541z"/>
	<path style="fill:#4982AA;" d="M475.277,453.714l0.162-0.284l-0.025-0.006C475.414,453.425,475.367,453.534,475.277,453.714z"/>
</g>
<path style="fill:#FBCB99;" d="M263.146,289.305c8.384,0,15.204-6.82,15.204-15.204v-0.434c2.632,2.181,6.007,3.491,9.683,3.491
	l0.502-0.001c8.385-0.001,15.206-6.819,15.206-15.203v-55.711c4.804,7.001,12.493,15.884,21.557,17.829
	c5.029,1.081,9.719-0.064,14.092-3.303l1.506-1.116l1.053-1.547c2.385-3.511,6.546-13.575-6.313-31.194
	c-7.038-9.646-8.367-16.953-9.656-24.024c-2.41-13.208-5.528-23.105-25.702-38.644l-0.001-25.323h-86.591l-0.002,33.667
	c-17.764,12.893-16.958,61.638-16.915,63.704l-0.001,35.815c0.002,8.383,6.821,15.204,15.204,15.204h0.505
	c3.676,0,7.053-1.312,9.685-3.492l-0.001,18.137c0,8.383,6.821,15.205,15.205,15.205l0.504-0.001
	c3.608-0.002,6.946-1.242,9.573-3.368v0.311c-0.001,8.385,6.82,15.203,15.204,15.203L263.146,289.305z"/>
<g>
	<path style="fill:#E9B585;" d="M223.622,132.588l0.002-33.667h-9.939l-0.002,33.667c-17.764,12.893-16.958,61.638-16.915,63.704
		l-0.001,35.815c0.002,8.383,6.821,15.204,15.204,15.204h0.505c1.644,0,3.225-0.275,4.71-0.761
		c-6.076-1.993-10.477-7.71-10.48-14.443l0.001-35.815C206.662,194.225,205.858,145.48,223.622,132.588z"/>
	<path style="fill:#E9B585;" d="M232.097,261.956l0.001-18.137c-0.1,0.083-0.209,0.156-0.309,0.235v-41.188
		c0-2.659-2.156-4.814-4.815-4.814s-4.815,2.154-4.815,4.814v48.809l0.001,0.006l-0.001,10.274c0,8.383,6.821,15.205,15.205,15.205
		l0.504-0.001c1.646-0.001,3.232-0.272,4.725-0.755C236.508,274.415,232.097,268.693,232.097,261.956z"/>
	<path style="fill:#E9B585;" d="M287.282,271.206c0.012-0.139,0.042-0.273,0.042-0.415v-48.809c0-2.659-2.156-4.814-4.815-4.814
		s-4.815,2.154-4.815,4.814v48.809c0,0.05,0.013,0.096,0.014,0.145c0.075,1.712,0.64,2.733,0.64,2.733
		c0.463,0.421,0.954,0.781,1.458,1.106c0.008,0.006,0.015,0.011,0.022,0.015c4.189,2.7,9.388,2.37,9.388,2.37l0.059-0.031
		c1.384-0.07,2.72-0.317,3.983-0.731c-1.692-0.553-3.251-1.397-4.626-2.469C287.771,273.017,287.412,272.033,287.282,271.206z"/>
	<path style="fill:#E9B585;" d="M257.377,274.103v-0.311v-46.999c0-2.659-2.156-4.814-4.815-4.814s-4.815,2.154-4.815,4.814v48.809
		c0,0.544,0.11,1.06,0.277,1.547c-0.073,0.001-0.146,0.01-0.22,0.01h-0.057c1.418,6.924,7.558,12.146,14.895,12.146l0.504,0.001
		c1.648,0,3.231-0.272,4.719-0.76C261.785,286.557,257.376,280.839,257.377,274.103z"/>
	<path style="fill:#E9B585;" d="M318.887,212.973c-1.021-1.203-2.667-3.312-4.507-5.727c-0.24-0.337-0.477-0.673-0.702-1.002v0.078
		c-4.565-6.019-9.939-13.367-9.939-13.367v13.288c3.158,4.868,9.939,11.473,9.939,11.473c3.474,3.027,7.394,5.45,11.618,6.355
		c2.943,0.632,5.767,0.481,8.481-0.384C328.089,221.983,322.997,217.647,318.887,212.973z"/>
</g>
<path style="fill:#6598CB;" d="M304.635,32.662h-1.05c-0.201,0.011-0.318,0.025-0.318,0.025l-0.007-0.025h-80.424h-13.695
	l-0.008,0.025c0,0-0.116-0.015-0.319-0.025h-1.049c-2.273,0.117-6.616,1.078-6.979,6.695v17.764v22.864v17.764
	c0.363,5.617,4.708,6.578,6.979,6.695h1.049c0.203-0.011,0.319-0.025,0.319-0.025l0.008,0.025h13.695h80.424l0.007-0.025
	c0,0,0.117,0.015,0.318,0.025h1.05c2.273-0.116,6.616-1.078,6.978-6.695V79.985V57.12V39.357
	C311.251,33.74,306.908,32.779,304.635,32.662z"/>
<g>
	<path style="fill:#4982AA;" d="M220.752,97.747V79.985V57.12V39.357c0.363-5.617,4.708-6.578,6.979-6.695h-2.687H209.14
		l-0.008,0.025c0,0-0.116-0.015-0.319-0.025h-1.049c-2.273,0.117-6.616,1.078-6.979,6.695v17.764v22.864v17.764
		c0.363,5.617,4.708,6.578,6.979,6.695h1.049c0.203-0.011,0.319-0.025,0.319-0.025l0.008,0.025h15.904h2.687
		C225.459,104.327,221.115,103.365,220.752,97.747z"/>
	<path style="fill:#4982AA;" d="M233.525,32.662h-0.327c0.203,0.011,0.319,0.025,0.319,0.025L233.525,32.662z"/>
	<path style="fill:#4982AA;" d="M233.198,104.443h0.327l-0.008-0.025C233.517,104.417,233.4,104.432,233.198,104.443z"/>
</g>
<g>
</g>
<g>
</g>
<g>
</g>
<g>
</g>
<g>
</g>
<g>
</g>
<g>
</g>
<g>
</g>
<g>
</g>
<g>
</g>
<g>
</g>
<g>
</g>
<g>
</g>
<g>
</g>
<g>
</g>
</svg>
