<?xml version="1.0" encoding="iso-8859-1"?>
<!-- Generator: Adobe Illustrator 19.0.0, SVG Export Plug-In . SVG Version: 6.00 Build 0)  -->
<svg version="1.1" id="Layer_1" xmlns="http://www.w3.org/2000/svg" xmlns:xlink="http://www.w3.org/1999/xlink" x="0px" y="0px"
	 viewBox="0 0 512 512" style="enable-background:new 0 0 512 512;" xml:space="preserve">
<path style="fill:#D1D1D1;" d="M238.345,335.448h79.448c12.359-24.717,29.131-45.903,48.552-65.324l52.966-52.966l-81.214-81.214
	l-52.966,52.966c-19.421,19.421-42.372,35.31-66.207,47.669l-33.545,16.772l5.297,15.007
	C200.386,294.841,217.159,317.793,238.345,335.448"/>
<g>
	<path style="fill:#9E5A23;" d="M375.172,261.297l31.779-31.779l18.538,18.538l-31.779,31.779L375.172,261.297z"/>
	<path style="fill:#9E5A23;" d="M331.917,142.124c-33.545-16.772-49.435-33.545-62.676-62.676
		c-14.124-32.662-39.724-56.497-74.152-61.793l-37.959,37.959c35.31,5.297,60.028,29.131,75.034,62.676
		c12.359,29.131,29.131,45.903,62.676,62.676L331.917,142.124z"/>
</g>
<path style="fill:#514439;" d="M88.276,414.897c0,44.138-19.421,79.448-44.138,79.448S0,459.034,0,414.897
	s19.421-79.448,44.138-79.448S88.276,370.759,88.276,414.897"/>
<g>
	<path style="fill:#998373;" d="M44.138,463.448c-2.648,0-6.179-1.766-7.945-4.414c-2.648-5.297-9.71-20.303-9.71-44.138
		c0-23.834,7.062-38.841,9.71-44.138c2.648-4.414,7.945-5.297,12.359-3.531c4.414,2.648,5.297,7.945,3.531,12.359
		c-2.648,4.414-7.945,15.89-7.945,35.31c0,19.421,5.297,30.897,7.945,35.31c2.648,4.414,0.883,9.71-3.531,12.359
		C46.786,462.566,45.903,463.448,44.138,463.448"/>
	<path style="fill:#998373;" d="M467.862,335.448H44.138c24.717,0,44.138,35.31,44.138,79.448s-19.421,79.448-44.138,79.448h423.724
		c24.717,0,44.138-35.31,44.138-79.448S492.579,335.448,467.862,335.448"/>
</g>
<g>
	<path style="fill:#514439;" d="M158.897,379.586H81.214c-5.297,0-8.828-3.531-8.828-8.828s3.531-8.828,8.828-8.828h77.683
		c5.297,0,8.828,3.531,8.828,8.828S164.193,379.586,158.897,379.586"/>
	<path style="fill:#514439;" d="M335.448,379.586H194.207c-5.297,0-8.828-3.531-8.828-8.828s3.531-8.828,8.828-8.828h141.241
		c5.297,0,8.828,3.531,8.828,8.828S340.745,379.586,335.448,379.586"/>
	<path style="fill:#514439;" d="M494.345,379.586H370.759c-5.297,0-8.828-3.531-8.828-8.828s3.531-8.828,8.828-8.828h123.586
		c5.297,0,8.828,3.531,8.828,8.828S499.641,379.586,494.345,379.586"/>
	<path style="fill:#514439;" d="M291.31,423.724h-26.483c-5.297,0-8.828-3.531-8.828-8.828s3.531-8.828,8.828-8.828h26.483
		c5.297,0,8.828,3.531,8.828,8.828S296.607,423.724,291.31,423.724"/>
	<path style="fill:#514439;" d="M211.862,423.724h-88.276c-5.297,0-8.828-3.531-8.828-8.828s3.531-8.828,8.828-8.828h88.276
		c5.297,0,8.828,3.531,8.828,8.828S217.159,423.724,211.862,423.724"/>
	<path style="fill:#514439;" d="M379.586,423.724h-52.966c-5.297,0-8.828-3.531-8.828-8.828s3.531-8.828,8.828-8.828h52.966
		c5.297,0,8.828,3.531,8.828,8.828S384.883,423.724,379.586,423.724"/>
	<path style="fill:#514439;" d="M503.172,423.724h-79.448c-5.297,0-8.828-3.531-8.828-8.828s3.531-8.828,8.828-8.828h79.448
		c5.297,0,8.828,3.531,8.828,8.828S508.469,423.724,503.172,423.724"/>
	<path style="fill:#514439;" d="M167.724,467.862h-86.51c-5.297,0-8.828-3.531-8.828-8.828s3.531-8.828,8.828-8.828h86.51
		c5.297,0,8.828,3.531,8.828,8.828S173.021,467.862,167.724,467.862"/>
	<path style="fill:#514439;" d="M459.034,467.862h-70.621c-5.297,0-8.828-3.531-8.828-8.828s3.531-8.828,8.828-8.828h70.621
		c5.297,0,8.828,3.531,8.828,8.828S464.331,467.862,459.034,467.862"/>
	<path style="fill:#514439;" d="M326.621,467.862H220.69c-5.297,0-8.828-3.531-8.828-8.828s3.531-8.828,8.828-8.828h105.931
		c5.297,0,8.828,3.531,8.828,8.828S331.917,467.862,326.621,467.862"/>
</g>
<path style="fill:#DD342E;" d="M238.345,335.448h76.8l-11.476-4.414c-38.841-12.359-68.855-41.49-81.214-81.214l-4.414-12.359
	l-32.662,15.89l5.297,15.007C200.386,294.841,217.159,317.793,238.345,335.448"/>
<g>
	<path style="fill:#844414;" d="M237.462,37.076c-4.414-3.531-9.71-7.062-15.007-9.71l-9.71,9.71c-3.531,3.531-3.531,8.828,0,12.359
		c1.766,1.766,4.414,2.648,6.179,2.648c2.648,0,4.414-0.883,6.179-2.648l11.476-11.476
		C237.462,37.959,237.462,37.076,237.462,37.076"/>
	<path style="fill:#844414;" d="M250.703,49.434C250.703,49.434,249.821,49.434,250.703,49.434l-12.359,12.359
		c-3.531,3.531-3.531,8.828,0,12.359c1.766,1.766,4.414,2.648,6.179,2.648c2.648,0,4.414-0.883,6.179-2.648l9.71-9.71
		C257.766,58.262,254.234,53.848,250.703,49.434"/>
</g>
<g>
</g>
<g>
</g>
<g>
</g>
<g>
</g>
<g>
</g>
<g>
</g>
<g>
</g>
<g>
</g>
<g>
</g>
<g>
</g>
<g>
</g>
<g>
</g>
<g>
</g>
<g>
</g>
<g>
</g>
</svg>
